# xmcd CD database file
#
# Track frame offsets:
#	150
#	11817
#	31060
#	47465
#	84352
#	113872
#	133797
#
# Disc length: 2166 seconds
#
# Revision: 2
# Processed by: cddbd v1.5.2PL0 Copyright (c) Steve Scherf et al.
# Submitted via: CDex 1.51
#
DISCID=4d087407
DTITLE=Roy Buchanan - Live Stock
DYEAR=1900
DGENRE=Blues
TTITLE0=Reelin' And Rockin'
TTITLE1=Hot Cha
TTITLE2=Further On Up The Road
TTITLE3=Roy's Bluz
TTITLE4=Can I Change My Mind
TTITLE5=I'm A Ram
TTITLE6=I'm Evil
EXTD=
EXTT0=
EXTT1=
EXTT2=
EXTT3=
EXTT4=
EXTT5=
EXTT6=
PLAYORDER=
